<svg id="Capa_1" data-name="Capa 1" xmlns="http://www.w3.org/2000/svg" viewBox="0 0 505.75 506">
    <title>music_download_button</title>
    <path
        d="M468.28,118.64C410.18,28.51,300.67-15.26,196.6,10.15,82.9,37.92,3.27,139,3.12,261.22c.23,44.52,13.73,90.45,40.8,132.46,59.55,92.38,174.35,135.89,280,105.94,7.36-2.09,7.43-2.75,2.36-8.3-33.21-36.36-42.49-78.2-24.84-124.09C331.55,289,431.8,268,491.72,326.62c4.88,4.78,6.38,4.55,7.7-2.24,3.21-16.48,7.38-32.92,8.62-49.56C512.24,218.48,499,166.27,468.28,118.64ZM348.51,238.15c-6.73,2.61-12.55-.54-17.08-7.75s-9.31-14.46-15.24-20.46c-10.4-10.49-26.26-12.69-40.36-6.7v28.43c0,25.72-.44,51.46.09,77.17.33,16.43-5.63,29.74-17.59,40.24-21.37,18.8-45.92,26.28-73.73,17.37-16.59-5.3-26.86-17-29-34.7-2-17.05,4.29-30.92,17.9-40.95,16.16-11.92,34.71-15.18,54.43-12.57,1.13.15,2.24.35,4.22.66v-6.41q0-57.89,0-115.76c0-10.62,3.84-15,14.54-14.72a236.43,236.43,0,0,1,32.91,2.78c19,3.19,34.78,12.42,47.47,27.15,12.53,14.51,23.14,30,28.62,48.57C358.16,228.81,355.36,235.5,348.51,238.15Z"
        transform="translate(-3.12 -3)" fill="#1F1F1F"/>
    <path
        d="M410.07,310.81c-54.53-.19-99.15,44.32-99.22,99-.1,54.44,44,98.67,98.61,99s99.11-43.72,99.41-98.66C509.18,355.63,464.81,311,410.07,310.81ZM455.8,420.86Q436.53,440.38,417,459.67c-5,5-9.43,4.77-14.55-.33q-18.93-18.82-37.76-37.76c-4.66-4.7-5-10.12-1-13.87,3.76-3.58,9-3.09,13.54,1.39,7.54,7.36,15,14.79,22.53,22.18.08.08.3,0,1.28,0V395.08c0-9.73-.36-19.47.25-29.16a12,12,0,0,1,4.91-8.22c2.05-1.28,6.1-.61,8.67.54,3.74,1.67,3.9,5.69,3.9,9.45q0,29.19,0,58.35v6.36c1.88-1.62,3-2.46,3.94-3.44,6.89-6.85,13.7-13.81,20.66-20.59,4.06-3.95,9.19-4.08,12.81-.66C459.93,411.33,460,416.65,455.8,420.86Z"
        transform="translate(-3.12 -3)" fill="#1F1F1F"/>
</svg>