<svg id="Capa_1" data-name="Capa 1" xmlns="http://www.w3.org/2000/svg" viewBox="0 0 484.88 506">
    <title>video _download_button</title>
    <path
        d="M367.45,246.46c-72.3-.25-131.45,58.76-131.55,131.25-.12,72.18,58.28,130.81,130.74,131.29S498,451,498.44,378.2C498.84,305.88,440,246.72,367.45,246.46Zm60.63,145.9q-25.56,25.88-51.46,51.46c-6.69,6.58-12.5,6.31-19.29-.44q-25.08-25-50.06-50.06c-6.17-6.23-6.63-13.42-1.38-18.39,5-4.74,11.9-4.1,17.95,1.83,10,9.77,19.92,19.62,29.87,29.42.11.1.4,0,1.7,0v-48c0-12.89-.47-25.81.33-38.65a15.93,15.93,0,0,1,6.51-10.9c2.71-1.7,8.08-.81,11.5.72,4.95,2.2,5.16,7.54,5.16,12.52q0,38.7,0,77.36v8.44c2.49-2.16,3.92-3.28,5.22-4.57,9.13-9.08,18.16-18.3,27.4-27.3,5.37-5.23,12.18-5.4,17-.87C433.56,379.72,433.61,386.77,428.08,392.36Z"
        transform="translate(-13.56 -3)" fill="#1F1F1F"/>
    <path
        d="M354.42,3h-263A77.87,77.87,0,0,0,13.56,80.87v263a77.87,77.87,0,0,0,77.87,77.87H231.18a142.07,142.07,0,0,1-6.87-44c.11-78.88,64.47-143.1,143.17-142.84a142.72,142.72,0,0,1,64.82,15.76V80.87A77.88,77.88,0,0,0,354.42,3ZM295.21,224.55l-90.1,72.82a13.84,13.84,0,0,1-22.55-10.76V141a13.85,13.85,0,0,1,22.55-10.77L295.21,203A13.83,13.83,0,0,1,295.21,224.55Z"
        transform="translate(-13.56 -3)" fill="#1F1F1F" />
</svg>